<svg width="32" height="26" viewBox="0 0 32 26" fill="none" xmlns="http://www.w3.org/2000/svg">
<path fill-rule="evenodd" clip-rule="evenodd" d="M11.5349 4.37796C10.9974 4.37796 10.4652 4.47958 9.96857 4.677C9.47199 4.87443 9.02077 5.16381 8.6407 5.52861C8.26063 5.89341 7.95914 6.3265 7.75345 6.80313C7.54775 7.27977 7.44188 7.79062 7.44188 8.30653C7.44188 8.82244 7.54775 9.33329 7.75345 9.80993C7.95914 10.2866 8.26063 10.7196 8.6407 11.0845C9.02077 11.4493 9.47199 11.7386 9.96857 11.9361C10.4652 12.1335 10.9974 12.2351 11.5349 12.2351C12.6204 12.2351 13.6615 11.8212 14.4291 11.0845C15.1967 10.3477 15.6279 9.34845 15.6279 8.30653C15.6279 7.26461 15.1967 6.26536 14.4291 5.52861C13.6615 4.79186 12.6204 4.37796 11.5349 4.37796ZM9.67444 8.30653C9.67444 7.83293 9.87045 7.37873 10.2194 7.04384C10.5683 6.70895 11.0415 6.52082 11.5349 6.52082C12.0283 6.52082 12.5015 6.70895 12.8505 7.04384C13.1994 7.37873 13.3954 7.83293 13.3954 8.30653C13.3954 8.78013 13.1994 9.23434 12.8505 9.56922C12.5015 9.90411 12.0283 10.0922 11.5349 10.0922C11.0415 10.0922 10.5683 9.90411 10.2194 9.56922C9.87045 9.23434 9.67444 8.78013 9.67444 8.30653ZM11.5349 12.9494C9.75481 12.9494 8.08932 13.2922 6.8257 13.8994C5.63053 14.4737 4.46514 15.4651 4.46514 16.878V16.968C4.46216 17.6965 4.45918 18.9251 5.67072 19.7665C6.23332 20.1565 6.97602 20.4065 7.89584 20.5651C8.82309 20.7251 10.0123 20.8065 11.5349 20.8065C13.0575 20.8065 14.2467 20.7251 15.174 20.5651C16.0938 20.4065 16.8365 20.1565 17.3991 19.7651C18.6106 18.9237 18.6077 17.6965 18.6047 16.9665V16.878C18.6047 15.4637 17.4393 14.4737 16.2441 13.8994C14.9805 13.2937 13.315 12.9494 11.5349 12.9494ZM6.6977 16.878C6.6977 16.7137 6.86588 16.2765 7.82439 15.8165C8.71742 15.388 10.0272 15.0922 11.5349 15.0922C13.0426 15.0922 14.3539 15.388 15.2454 15.8165C16.2039 16.2765 16.3721 16.7137 16.3721 16.878C16.3721 17.7408 16.3141 17.8737 16.0893 18.0308C15.9077 18.1565 15.5342 18.3251 14.7796 18.4565C14.0324 18.5851 12.989 18.6637 11.5349 18.6637C10.0808 18.6637 9.03742 18.5851 8.29026 18.4565C7.53565 18.3251 7.16207 18.1565 6.98049 18.0308C6.75425 17.8737 6.6977 17.7408 6.6977 16.878Z" fill="white"/>
<path d="M26.4186 13.6636C26.7147 13.6636 26.9986 13.5508 27.2079 13.3498C27.4173 13.1489 27.5349 12.8764 27.5349 12.5922C27.5349 12.3081 27.4173 12.0355 27.2079 11.8346C26.9986 11.6337 26.7147 11.5208 26.4186 11.5208H20.4651C20.1691 11.5208 19.8851 11.6337 19.6758 11.8346C19.4665 12.0355 19.3488 12.3081 19.3488 12.5922C19.3488 12.8764 19.4665 13.1489 19.6758 13.3498C19.8851 13.5508 20.1691 13.6636 20.4651 13.6636H26.4186ZM27.5349 8.30651C27.5349 8.59067 27.4173 8.86319 27.2079 9.06412C26.9986 9.26505 26.7147 9.37793 26.4186 9.37793H18.9768C18.6807 9.37793 18.3968 9.26505 18.1874 9.06412C17.9781 8.86319 17.8605 8.59067 17.8605 8.30651C17.8605 8.02234 17.9781 7.74982 18.1874 7.54889C18.3968 7.34796 18.6807 7.23508 18.9768 7.23508H26.4186C26.7147 7.23508 26.9986 7.34796 27.2079 7.54889C27.4173 7.74982 27.5349 8.02234 27.5349 8.30651ZM26.4186 17.9494C26.7147 17.9494 26.9986 17.8365 27.2079 17.6355C27.4173 17.4346 27.5349 17.1621 27.5349 16.8779C27.5349 16.5938 27.4173 16.3213 27.2079 16.1203C26.9986 15.9194 26.7147 15.8065 26.4186 15.8065H21.9535C21.6574 15.8065 21.3735 15.9194 21.1642 16.1203C20.9548 16.3213 20.8372 16.5938 20.8372 16.8779C20.8372 17.1621 20.9548 17.4346 21.1642 17.6355C21.3735 17.8365 21.6574 17.9494 21.9535 17.9494H26.4186Z" fill="white"/>
<path fill-rule="evenodd" clip-rule="evenodd" d="M12.9399 0.0922241H19.0601C21.7957 0.0922241 23.9628 0.0922243 25.658 0.310796C27.4024 0.53651 28.8149 1.0108 29.9297 2.07937C31.043 3.14937 31.5371 4.50508 31.7723 6.17937C32 7.80794 32 9.88651 32 12.5122V12.6722C32 15.2979 32 17.3779 31.7723 19.0051C31.5371 20.6794 31.043 22.0351 29.9297 23.1051C28.8149 24.1737 27.4024 24.6479 25.658 24.8737C23.9613 25.0922 21.7957 25.0922 19.0601 25.0922H12.9399C10.2043 25.0922 8.03721 25.0922 6.34195 24.8737C4.59758 24.6479 3.18512 24.1737 2.07033 23.1051C0.957023 22.0351 0.462884 20.6794 0.227721 19.0051C0 17.3765 0 15.2979 0 12.6722V12.5122C0 9.88651 0 7.80651 0.227721 6.17937C0.462884 4.50508 0.957023 3.14937 2.07033 2.07937C3.18512 1.0108 4.59758 0.53651 6.34195 0.310796C8.0387 0.0922243 10.2043 0.0922241 12.9399 0.0922241ZM6.63814 2.43508C5.14084 2.62794 4.27758 2.9908 3.64651 3.59508C3.01842 4.19937 2.64037 5.02794 2.43944 6.46508C2.23405 7.93365 2.23107 9.86794 2.23107 12.5922C2.23107 15.3165 2.23405 17.2508 2.43944 18.7208C2.64037 20.1565 3.01842 20.9851 3.648 21.5894C4.27758 22.1937 5.14084 22.5565 6.63814 22.7494C8.16819 22.9465 10.1834 22.9494 13.0218 22.9494H18.9753C21.8136 22.9494 23.8303 22.9465 25.3604 22.7494C26.8562 22.5565 27.7194 22.1937 28.349 21.5894C28.9786 20.9851 29.3566 20.1565 29.5576 18.7194C29.763 17.2508 29.766 15.3165 29.766 12.5922C29.766 9.86794 29.763 7.93365 29.5576 6.46365C29.3566 5.02794 28.9786 4.19937 28.349 3.59508C27.7194 2.9908 26.8562 2.62794 25.3589 2.43508C23.8303 2.23794 21.8136 2.23508 18.9753 2.23508H13.0218C10.1834 2.23508 8.16967 2.23794 6.63814 2.43508Z" fill="white"/>
</svg>
