<svg width="257" height="201" viewBox="0 0 257 201" fill="none" xmlns="http://www.w3.org/2000/svg">
<path fill-rule="evenodd" clip-rule="evenodd" d="M92.8141 34.3781C88.5141 34.3781 84.2561 35.191 80.2834 36.7705C76.3107 38.3499 72.701 40.6649 69.6605 43.5833C66.6199 46.5017 64.208 49.9664 62.5624 53.7795C60.9169 57.5926 60.0699 61.6794 60.0699 65.8067C60.0699 69.9339 60.9169 74.0208 62.5624 77.8339C64.208 81.647 66.6199 85.1116 69.6605 88.03C72.701 90.9485 76.3107 93.2635 80.2834 94.8429C84.2561 96.4223 88.5141 97.2353 92.8141 97.2353C101.498 97.2353 109.827 93.924 115.968 88.03C122.108 82.136 125.558 74.1421 125.558 65.8067C125.558 57.4713 122.108 49.4773 115.968 43.5833C109.827 37.6893 101.498 34.3781 92.8141 34.3781ZM77.9304 65.8067C77.9304 62.0179 79.4985 58.3843 82.2897 55.7052C85.081 53.0261 88.8667 51.521 92.8141 51.521C96.7615 51.521 100.547 53.0261 103.338 55.7052C106.13 58.3843 107.698 62.0179 107.698 65.8067C107.698 69.5955 106.13 73.2291 103.338 75.9082C100.547 78.5873 96.7615 80.0924 92.8141 80.0924C88.8667 80.0924 85.081 78.5873 82.2897 75.9082C79.4985 73.2291 77.9304 69.5955 77.9304 65.8067ZM92.8141 102.95C78.5734 102.95 65.2494 105.692 55.1404 110.55C45.5791 115.144 36.256 123.075 36.256 134.378V135.098C36.2321 140.927 36.2083 150.755 45.9006 157.487C50.4014 160.607 56.343 162.607 63.7015 163.875C71.1196 165.155 80.6333 165.807 92.8141 165.807C104.995 165.807 114.509 165.155 121.927 163.875C129.285 162.607 135.227 160.607 139.728 157.475C149.42 150.744 149.396 140.927 149.372 135.087V134.378C149.372 123.064 140.049 115.144 130.488 110.55C120.379 105.704 107.055 102.95 92.8141 102.95ZM54.1164 134.378C54.1164 133.064 55.4619 129.567 63.13 125.887C70.2742 122.458 80.7523 120.092 92.8141 120.092C104.876 120.092 115.366 122.458 122.498 125.887C130.166 129.567 131.512 133.064 131.512 134.378C131.512 141.281 131.047 142.344 129.249 143.601C127.797 144.607 124.808 145.955 118.771 147.007C112.794 148.035 104.447 148.664 92.8141 148.664C81.181 148.664 72.8342 148.035 66.8569 147.007C60.8201 145.955 57.8314 144.607 56.3788 143.601C54.5689 142.344 54.1164 141.281 54.1164 134.378Z" fill="white"/>
<path d="M211.884 108.664C214.252 108.664 216.524 107.761 218.198 106.153C219.873 104.546 220.814 102.365 220.814 100.092C220.814 97.8189 219.873 95.6387 218.198 94.0313C216.524 92.4238 214.252 91.5208 211.884 91.5208H164.256C161.887 91.5208 159.616 92.4238 157.941 94.0313C156.267 95.6387 155.326 97.8189 155.326 100.092C155.326 102.365 156.267 104.546 157.941 106.153C159.616 107.761 161.887 108.664 164.256 108.664H211.884ZM220.814 65.8065C220.814 68.0798 219.873 70.2599 218.198 71.8674C216.524 73.4748 214.252 74.3779 211.884 74.3779H152.349C149.98 74.3779 147.709 73.4748 146.034 71.8674C144.36 70.2599 143.419 68.0798 143.419 65.8065C143.419 63.5332 144.36 61.353 146.034 59.7456C147.709 58.1381 149.98 57.235 152.349 57.235H211.884C214.252 57.235 216.524 58.1381 218.198 59.7456C219.873 61.353 220.814 63.5332 220.814 65.8065ZM211.884 142.949C214.252 142.949 216.524 142.046 218.198 140.439C219.873 138.831 220.814 136.651 220.814 134.378C220.814 132.105 219.873 129.924 218.198 128.317C216.524 126.71 214.252 125.806 211.884 125.806H176.163C173.794 125.806 171.523 126.71 169.848 128.317C168.174 129.924 167.233 132.105 167.233 134.378C167.233 136.651 168.174 138.831 169.848 140.439C171.523 142.046 173.794 142.949 176.163 142.949H211.884Z" fill="white"/>
<path fill-rule="evenodd" clip-rule="evenodd" d="M104.054 0.0922241H153.016C174.901 0.0922241 192.237 0.0922255 205.799 1.8408C219.754 3.64651 231.054 7.44079 239.972 15.9894C248.879 24.5494 252.832 35.3951 254.713 48.7894C256.535 61.8179 256.535 78.4465 256.535 99.4522V100.732C256.535 121.738 256.535 138.378 254.713 151.395C252.832 164.789 248.879 175.635 239.972 184.195C231.054 192.744 219.754 196.538 205.799 198.344C192.225 200.092 174.901 200.092 153.016 200.092H104.054C82.1691 200.092 64.8326 200.092 51.2705 198.344C37.3155 196.538 26.0158 192.744 17.0975 184.195C8.19107 175.635 4.23795 164.789 2.35665 151.395C0.534882 138.367 0.534882 121.738 0.534882 100.732V99.4522C0.534882 78.4465 0.534882 61.8065 2.35665 48.7894C4.23795 35.3951 8.19107 24.5494 17.0975 15.9894C26.0158 7.44079 37.3155 3.64651 51.2705 1.8408C64.8445 0.0922255 82.1691 0.0922241 104.054 0.0922241ZM53.64 18.8351C41.6616 20.3779 34.7555 23.2808 29.707 28.1151C24.6822 32.9494 21.6579 39.5779 20.0504 51.0751C18.4073 62.8237 18.3834 78.2979 18.3834 100.092C18.3834 121.887 18.4073 137.361 20.0504 149.121C21.6579 160.607 24.6822 167.235 29.7189 172.069C34.7555 176.904 41.6616 179.807 53.64 181.349C65.8804 182.927 82.0024 182.949 104.709 182.949H152.337C175.044 182.949 191.177 182.927 203.418 181.349C215.384 179.807 222.29 176.904 227.327 172.069C232.364 167.235 235.388 160.607 236.996 149.109C238.639 137.361 238.663 121.887 238.663 100.092C238.663 78.2979 238.639 62.8237 236.996 51.0637C235.388 39.5779 232.364 32.9494 227.327 28.1151C222.29 23.2808 215.384 20.3779 203.406 18.8351C191.177 17.2579 175.044 17.2351 152.337 17.2351H104.709C82.0024 17.2351 65.8923 17.2579 53.64 18.8351Z" fill="white"/>
</svg>
